# xmcd CD database file generated by Grip 2.96
# 
# Track frame offsets:
#       150
#       11952
#       22513
#       38779
#       54663
#       68912
#       85441
#       102319
#       118494
#       132109
#       144316
#       159931
#       175117
#       188690
# 
# Disc length: 3033 seconds
# 
# Revision: 0
# Processed by: cddbd v1.4PL0 Copyright (c) Steve Scherf et al.
# Submitted via: Grip 2.96
# 
DISCID=b60bd70e
DTITLE=Uncle Bill - Special Treatment
DYEAR=1900
DGENRE=
TTITLE0=40 miles to Saturday night
TTITLE1=If I had a ticket
TTITLE2=Don't drink the water
TTITLE3=Special Treatment
TTITLE4=Bed of Nails
TTITLE5=Richochet
TTITLE6=Overkill
TTITLE7=Green Hills
TTITLE8=Another man's wife
TTITLE9=Maybe this time for sure
TTITLE10=She left me
TTITLE11=I want you back
TTITLE12=Uluru
TTITLE13=Stella Joy and It's Raining Men
EXTD=
EXTT0=
EXTT1=
EXTT2=
EXTT3=
EXTT4=
EXTT5=
EXTT6=
EXTT7=
EXTT8=
EXTT9=
EXTT10=
EXTT11=
EXTT12=
EXTT13=
PLAYORDER=
